# xmcd CD database file
#
# Track frame offsets:
#	150
#	39502
#	75072
#	93255
#	144958
#
# Disc length: 2453 seconds
#
# Revision: 0
# Processed by: cddbd v1.5.1PL0 Copyright (c) Steve Scherf et al.
# Submitted via: CDex 1.51
#
DISCID=29099305
DTITLE=John Mclaughlin, Paco de Lucia and Al Di Meola - Friday Night In San Francisco
DYEAR=1900
DGENRE=Jazz
TTITLE0=Mediterranean Sundance
TTITLE1=Short Tales Of The Black Forest
TTITLE2=Frevo Rasgado
TTITLE3=Fantasia Suite
TTITLE4=Guardian Angel
EXTD=
EXTT0=
EXTT1=
EXTT2=
EXTT3=
EXTT4=
PLAYORDER=
